<?xml version="1.0" standalone="no"?>
<!DOCTYPE svg PUBLIC "-//W3C//DTD SVG 20010904//EN"
 "http://www.w3.org/TR/2001/REC-SVG-20010904/DTD/svg10.dtd">
<svg version="1.0" xmlns="http://www.w3.org/2000/svg"
 width="2688.000000pt" height="1482.000000pt" viewBox="0 0 2688.000000 1482.000000"
 preserveAspectRatio="xMidYMid meet">

<g transform="translate(0.000000,1482.000000) scale(0.100000,-0.100000)"
fill="#000000" stroke="none">
<path d="M1438 14072 c-60 -19 -64 -42 -8 -42 l41 0 -3 -127 -3 -128 -27 -3
c-16 -2 -28 -9 -28 -18 0 -11 19 -14 95 -14 76 0 95 3 95 14 0 9 -12 16 -27
18 l-28 3 -3 158 -3 157 -27 -1 c-15 0 -48 -8 -74 -17z"/>
<path d="M1705 14068 c-38 -30 -55 -76 -55 -153 0 -114 42 -175 124 -178 87
-3 136 61 136 176 0 119 -43 177 -130 177 -33 0 -55 -6 -75 -22z m112 -35 c25
-38 25 -198 0 -236 -19 -29 -48 -35 -66 -13 -23 28 -35 130 -23 191 7 32 17
64 23 71 18 22 47 16 66 -13z"/>
<path d="M2005 14068 c-38 -30 -55 -76 -55 -153 0 -116 45 -179 126 -177 88 1
134 61 134 175 0 119 -43 177 -130 177 -33 0 -55 -6 -75 -22z m112 -35 c25
-38 25 -198 0 -236 -19 -29 -48 -35 -66 -13 -23 28 -35 130 -23 191 7 32 17
64 23 71 18 22 47 16 66 -13z"/>
<path d="M601 10988 c-49 -25 -76 -57 -87 -100 -9 -39 21 -38 41 2 43 84 322
78 360 -8 5 -12 17 -22 27 -22 14 0 15 5 8 31 -25 85 -74 112 -210 117 -83 3
-100 0 -139 -20z"/>
<path d="M1670 10875 c0 -48 3 -55 19 -55 13 0 21 8 23 23 3 20 9 22 71 25 37
2 67 1 67 -1 0 -2 -36 -70 -80 -151 -44 -81 -80 -149 -80 -152 0 -2 12 -4 28
-4 25 0 34 13 115 169 48 93 87 176 87 185 0 14 -18 16 -125 16 l-125 0 0 -55z"/>
<path d="M1980 10840 l0 -90 46 0 c25 0 54 -5 65 -11 60 -31 31 -129 -37 -129
-8 0 -20 14 -26 31 -8 25 -15 30 -37 27 -36 -4 -42 -49 -9 -72 27 -19 123 -21
156 -2 32 17 62 65 62 99 0 71 -59 115 -141 104 l-39 -5 0 39 0 39 80 0 80 0
0 30 0 30 -100 0 -100 0 0 -90z"/>
<path d="M853 10830 c-5 -18 -14 -20 -95 -20 -81 0 -91 -2 -113 -25 -29 -28
-30 -43 -10 -92 8 -19 15 -37 15 -39 0 -2 -34 -4 -75 -4 -82 0 -82 0 -64 -62
11 -40 39 -53 39 -18 0 19 7 20 145 20 134 0 145 -1 155 -20 20 -36 30 -21 30
45 0 49 -3 65 -14 65 -8 0 -16 -7 -20 -15 -4 -12 -23 -15 -85 -15 -76 0 -79 1
-85 25 -4 14 -2 34 4 45 9 17 21 20 89 20 61 0 80 -3 85 -15 14 -37 26 -11 26
55 0 44 -4 70 -11 70 -6 0 -13 -9 -16 -20z"/>
<path d="M537 10533 c-4 -3 -7 -30 -7 -60 0 -46 3 -53 20 -53 14 0 20 7 20 21
0 17 4 20 23 15 12 -3 55 -13 95 -23 39 -9 72 -19 72 -23 0 -3 -44 -19 -97
-34 -122 -35 -133 -41 -133 -71 0 -25 -5 -23 183 -77 20 -6 37 -14 37 -18 0
-6 -153 -50 -172 -50 -5 0 -8 7 -8 15 0 8 -9 15 -20 15 -19 0 -21 -5 -18 -67
2 -53 7 -68 19 -71 9 -2 19 5 21 15 4 14 39 27 157 58 l152 40 -3 29 c-3 29
-7 31 -108 61 -58 17 -112 34 -120 37 -8 3 26 17 75 32 166 50 155 45 155 76
0 33 12 28 -185 76 -74 18 -115 33 -124 45 -14 20 -23 23 -34 12z"/>
<path d="M853 10052 c-2 -10 -32 -35 -66 -55 l-62 -36 -30 23 c-16 13 -31 33
-33 45 -2 11 -10 21 -18 21 -10 0 -14 -14 -14 -55 0 -41 4 -55 14 -55 8 0 16
4 18 9 2 5 21 -6 43 -25 l40 -34 -122 0 c-137 0 -133 2 -111 -71 12 -41 38
-54 38 -19 0 19 7 20 145 20 134 0 145 -1 155 -20 20 -37 30 -20 30 50 0 66
-12 92 -26 55 -4 -10 -20 -15 -46 -15 -52 0 -46 16 20 49 l51 26 0 53 c1 51
-16 73 -26 34z"/>
<path d="M530 9592 c0 -12 57 -48 194 -125 106 -59 196 -107 200 -107 4 0 6
10 4 22 -2 16 -47 46 -188 124 -102 57 -191 104 -197 104 -7 0 -13 -8 -13 -18z"/>
<path d="M784 9210 c-12 -5 -35 -31 -53 -59 -21 -35 -37 -51 -52 -51 -17 0
-20 5 -17 33 2 24 8 33 26 35 14 2 22 10 22 23 0 16 -7 19 -39 19 -39 0 -40
-1 -46 -44 -7 -46 7 -107 28 -124 12 -10 39 -15 69 -13 10 1 31 24 49 56 35
62 41 68 64 59 12 -5 15 -16 13 -42 -2 -29 -8 -37 -28 -42 -14 -3 -26 -14 -28
-23 -3 -14 5 -17 42 -17 l45 0 7 47 c14 92 -39 166 -102 143z"/>
<path d="M853 8980 c-5 -18 -14 -20 -98 -20 -72 0 -97 -4 -109 -16 -25 -24
-29 -58 -11 -100 15 -36 15 -41 -1 -70 -16 -30 -17 -35 -2 -73 14 -35 14 -41
2 -41 -17 0 -17 -11 -2 -61 11 -38 38 -55 38 -24 0 12 17 15 90 15 73 0 90 -3
90 -15 0 -8 7 -15 15 -15 12 0 15 14 15 65 0 61 -13 85 -26 50 -5 -12 -25 -15
-89 -15 -74 0 -84 2 -90 20 -3 10 -1 28 5 40 9 17 20 20 89 20 61 0 80 -3 85
-15 13 -35 26 -11 26 50 0 51 -3 65 -15 65 -8 0 -15 -7 -15 -15 0 -12 -16 -15
-84 -15 -77 0 -84 2 -89 22 -12 46 7 58 93 58 47 0 80 -4 80 -10 0 -5 7 -10
15 -10 12 0 15 14 15 65 0 40 -4 65 -11 65 -6 0 -13 -9 -16 -20z"/>
<path d="M847 8521 c-4 -17 -15 -19 -93 -20 -100 0 -121 -12 -131 -74 -7 -43
19 -122 44 -131 23 -9 44 13 41 43 -2 18 -10 27 -25 29 -17 3 -23 10 -23 28 0
16 8 28 23 33 30 12 33 8 52 -55 9 -30 25 -64 36 -75 28 -28 76 -22 103 14 20
27 20 29 4 75 -10 27 -13 48 -8 50 16 6 12 102 -4 102 -7 0 -16 -9 -19 -19z
m-17 -95 c21 -26 8 -61 -23 -64 -23 -3 -30 2 -41 30 -8 18 -12 36 -10 40 9 14
61 9 74 -6z"/>
<path d="M625 8250 c-4 -13 1 -31 14 -49 l21 -29 -21 -5 c-22 -6 -22 -21 1
-82 11 -30 30 -33 30 -5 0 18 7 20 89 20 80 0 89 -2 94 -20 3 -11 10 -20 16
-20 7 0 11 27 11 75 0 60 -3 75 -15 75 -8 0 -15 -9 -15 -20 0 -18 -7 -20 -75
-20 -83 0 -98 11 -75 55 17 31 6 45 -35 45 -25 0 -35 -5 -40 -20z"/>
<path d="M640 8018 c0 -18 -5 -52 -10 -76 -27 -116 65 -199 141 -126 23 22 30
24 48 14 12 -6 25 -9 30 -6 5 3 16 -5 25 -19 23 -34 68 -34 95 1 29 36 29 126
1 172 -47 77 -117 57 -135 -38 -6 -30 -16 -55 -22 -57 -6 -2 -15 16 -21 40
-14 55 -43 81 -87 80 -31 -1 -35 2 -35 23 0 15 -6 24 -15 24 -10 0 -15 -10
-15 -32z m302 -75 c36 -32 13 -98 -33 -91 -28 4 -36 38 -20 81 12 31 27 34 53
10z m-184 -25 c16 -14 15 -23 -4 -42 -18 -19 -65 -21 -82 -4 -44 44 35 86 86
46z"/>
<path d="M1680 7690 l0 -90 46 0 c25 0 54 -5 65 -11 60 -31 31 -129 -37 -129
-8 0 -20 14 -26 31 -8 25 -15 30 -37 27 -36 -4 -42 -49 -9 -72 27 -19 123 -21
156 -2 32 17 62 65 62 99 0 71 -59 115 -141 104 l-39 -5 0 39 0 39 80 0 80 0
0 30 0 30 -100 0 -100 0 0 -90z"/>
<path d="M2005 7758 c-38 -30 -55 -76 -55 -153 0 -116 45 -179 126 -177 88 1
134 61 134 175 0 119 -43 177 -130 177 -33 0 -55 -6 -75 -22z m112 -35 c25
-38 25 -198 0 -236 -19 -29 -48 -35 -66 -13 -23 28 -35 130 -23 191 7 32 17
64 23 71 18 22 47 16 66 -13z"/>
<path d="M510 7731 c0 -28 41 -83 79 -105 44 -25 190 -35 247 -16 45 15 90 46
100 69 21 53 23 71 5 71 -10 0 -23 -11 -29 -26 -19 -40 -74 -58 -182 -58 -104
0 -147 14 -176 59 -19 29 -44 33 -44 6z"/>
<path d="M630 7360 c0 -38 4 -50 15 -50 8 0 15 5 15 10 0 14 12 13 76 -11 63
-24 61 -28 -21 -55 -35 -12 -50 -14 -53 -5 -2 6 -10 11 -18 11 -11 0 -14 -20
-14 -100 l0 -100 -30 0 c-41 0 -41 -33 0 -50 16 -7 32 -21 35 -31 7 -22 35
-26 35 -4 0 12 16 15 88 15 108 0 125 9 124 68 -1 55 -10 82 -28 82 -9 0 -14
-10 -14 -28 0 -43 -17 -52 -97 -52 l-73 0 0 34 c0 19 -3 41 -6 49 -4 11 24 26
108 60 105 42 115 44 140 31 32 -16 32 -18 16 -43 -17 -28 -3 -53 29 -49 24 3
29 8 31 37 5 53 -31 81 -189 146 -83 35 -139 63 -139 71 0 8 -7 14 -15 14 -11
0 -15 -12 -15 -50z"/>
<path d="M853 6940 c-5 -19 -14 -20 -119 -20 -124 0 -121 2 -102 -61 11 -38
38 -55 38 -24 0 12 17 15 90 15 73 0 90 -3 90 -15 0 -8 7 -15 15 -15 12 0 15
14 15 70 0 44 -4 70 -11 70 -6 0 -13 -9 -16 -20z"/>
<path d="M520 6916 c-6 -8 -10 -25 -8 -38 2 -18 10 -24 35 -26 28 -3 33 0 39
24 11 42 -39 72 -66 40z"/>
<path d="M780 6777 c-13 -7 -36 -32 -50 -57 -17 -29 -34 -46 -49 -48 -20 -3
-22 0 -19 30 2 25 8 34 26 36 14 2 22 10 22 23 0 16 -7 19 -39 19 -39 0 -40
-1 -46 -44 -7 -46 7 -107 28 -124 12 -10 39 -15 69 -13 10 1 31 24 49 56 35
62 41 68 64 59 12 -5 15 -16 13 -42 -2 -29 -8 -37 -28 -42 -14 -3 -26 -14 -28
-23 -3 -14 5 -17 42 -17 l45 0 7 47 c10 66 -11 123 -52 139 -24 10 -36 10 -54
1z"/>
<path d="M850 6556 c0 -10 -23 -15 -88 -18 -49 -3 -98 -10 -109 -16 -29 -16
-36 -54 -19 -102 12 -35 12 -40 -1 -40 -17 0 -14 -29 6 -82 12 -33 31 -37 31
-8 0 19 7 20 90 20 73 0 90 -3 90 -15 0 -8 7 -15 15 -15 12 0 15 14 15 65 0
61 -13 85 -26 50 -5 -12 -25 -15 -90 -15 -46 0 -84 4 -84 9 0 5 -3 16 -6 24
-3 9 4 25 15 36 17 17 33 21 91 21 56 0 70 -3 70 -15 0 -8 7 -15 15 -15 12 0
15 14 15 65 0 51 -3 65 -15 65 -8 0 -15 -6 -15 -14z"/>
<path d="M696 6240 c-43 -13 -65 -38 -71 -85 -13 -86 49 -149 143 -142 104 7
145 93 100 210 -13 35 -54 40 -43 5 23 -77 17 -111 -25 -133 -16 -8 -34 -15
-40 -15 -6 0 -10 32 -10 85 0 91 0 91 -54 75z m24 -115 c0 -38 -3 -43 -17 -38
-29 10 -43 24 -43 42 0 22 19 41 42 41 15 0 18 -8 18 -45z"/>
<path d="M637 5993 c-4 -3 -7 -21 -7 -40 0 -30 -3 -33 -30 -33 -41 0 -41 -33
0 -50 16 -7 32 -21 35 -31 7 -22 35 -26 35 -4 0 12 16 15 88 15 108 0 125 9
124 68 -1 55 -10 82 -28 82 -9 0 -14 -10 -14 -28 0 -43 -17 -52 -97 -52 l-73
0 0 40 c0 38 -14 52 -33 33z"/>
<path d="M850 5796 c0 -10 -23 -15 -88 -18 -49 -3 -98 -10 -109 -16 -29 -16
-36 -54 -19 -102 12 -35 12 -40 -1 -40 -17 0 -14 -29 6 -82 12 -33 31 -37 31
-8 0 19 7 20 90 20 73 0 90 -3 90 -15 0 -8 7 -15 15 -15 12 0 15 14 15 65 0
61 -13 85 -26 50 -5 -12 -25 -15 -90 -15 -46 0 -84 4 -84 9 0 5 -3 16 -6 24
-3 9 4 25 15 36 17 17 33 21 91 21 56 0 70 -3 70 -15 0 -8 7 -15 15 -15 12 0
15 14 15 65 0 51 -3 65 -15 65 -8 0 -15 -6 -15 -14z"/>
<path d="M530 5415 c0 -68 2 -75 20 -75 13 0 20 7 20 20 0 19 7 20 136 20 127
0 136 -1 141 -20 3 -11 12 -20 19 -20 11 0 14 18 14 75 0 57 -3 75 -14 75 -7
0 -16 -9 -19 -20 -5 -19 -14 -20 -141 -20 -129 0 -136 1 -136 20 0 13 -7 20
-20 20 -18 0 -20 -7 -20 -75z"/>
<path d="M780 5131 c0 -10 9 -21 20 -24 17 -4 20 -14 20 -61 0 -31 -2 -56 -4
-56 -2 0 -22 25 -46 55 -69 89 -154 115 -209 64 -59 -56 -27 -209 45 -209 55
0 59 62 4 70 -29 4 -36 10 -38 32 -5 38 35 63 85 53 30 -5 54 -24 114 -86 42
-43 84 -79 93 -79 14 0 16 17 16 130 l0 130 -50 0 c-42 0 -50 -3 -50 -19z"/>
<path d="M616 4837 c-65 -37 -81 -67 -81 -152 0 -87 17 -117 86 -153 55 -29
139 -26 193 7 71 44 97 158 53 236 -44 79 -168 110 -251 62z m155 -67 c51 -14
81 -50 77 -90 -11 -113 -266 -111 -276 1 -4 44 13 66 63 84 48 17 87 18 136 5z"/>
<path d="M1692 4600 c-28 -17 -33 -25 -30 -53 3 -28 7 -32 36 -35 31 -3 32 -2
32 31 0 19 6 37 13 40 22 8 57 -12 67 -39 18 -45 -5 -87 -86 -163 -46 -43 -74
-77 -74 -90 0 -20 5 -21 125 -21 l125 0 0 50 c0 39 -3 50 -16 50 -9 0 -18 -9
-21 -20 -5 -17 -14 -20 -66 -20 -34 0 -57 4 -51 8 5 4 31 25 58 47 61 48 86
89 86 140 -1 66 -37 95 -117 95 -30 0 -60 -7 -81 -20z"/>
<path d="M1980 4530 l0 -90 46 0 c25 0 54 -5 65 -11 60 -31 31 -129 -37 -129
-8 0 -20 14 -26 31 -8 25 -15 30 -37 27 -36 -4 -42 -49 -9 -72 27 -19 123 -21
156 -2 32 17 62 65 62 99 0 71 -59 115 -141 104 l-39 -5 0 39 0 39 80 0 80 0
0 30 0 30 -100 0 -100 0 0 -90z"/>
<path d="M536 4439 c-27 -137 31 -239 146 -255 90 -12 175 40 198 121 12 43 9
132 -5 155 -3 6 -26 10 -51 10 -37 0 -44 -3 -44 -20 0 -14 10 -22 33 -28 30
-8 32 -11 31 -50 -2 -95 -120 -139 -225 -86 -31 15 -52 60 -47 100 2 22 10 30
36 38 21 6 32 15 32 27 0 16 -8 19 -49 19 -46 0 -49 -1 -55 -31z"/>
<path d="M2005 1448 c-38 -30 -55 -76 -55 -153 0 -116 45 -179 126 -177 88 1
134 61 134 175 0 119 -43 177 -130 177 -33 0 -55 -6 -75 -22z m112 -35 c25
-38 25 -198 0 -236 -19 -29 -48 -35 -66 -13 -23 28 -35 130 -23 191 7 32 17
64 23 71 18 22 47 16 66 -13z"/>
<path d="M2800 1305 l0 -25 11650 0 11650 0 0 25 c0 14 -4 25 -10 25 -5 0 -10
-4 -10 -10 0 -7 -3883 -10 -11630 -10 -7747 0 -11630 3 -11630 10 0 6 -4 10
-10 10 -5 0 -10 -11 -10 -25z"/>
<path d="M12112 924 c-112 -55 -149 -219 -71 -308 87 -99 253 -10 218 117 -18
65 -77 95 -151 74 -23 -6 -25 -4 -21 14 9 33 61 78 98 85 25 4 35 11 35 25 0
28 -45 25 -108 -7z m58 -174 c13 -13 20 -33 20 -60 0 -38 -26 -80 -49 -80 -43
0 -85 114 -54 146 21 20 60 17 83 -6z"/>
<path d="M23722 924 c-112 -55 -149 -219 -71 -308 87 -99 253 -10 218 117 -18
65 -77 95 -151 74 -23 -6 -25 -4 -21 14 9 33 61 78 98 85 25 4 35 11 35 25 0
28 -45 25 -108 -7z m58 -174 c13 -13 20 -33 20 -60 0 -38 -26 -80 -49 -80 -43
0 -85 114 -54 146 21 20 60 17 83 -6z"/>
<path d="M2385 924 c-22 -7 -41 -14 -42 -14 -1 0 -10 -14 -19 -31 -18 -37 -12
-74 18 -106 12 -13 16 -23 10 -23 -24 0 -52 -40 -52 -74 0 -91 123 -134 218
-76 39 24 51 74 28 118 -8 16 -22 32 -31 36 -14 5 -13 9 5 34 29 39 24 98 -10
122 -36 26 -79 30 -125 14z m77 -41 c21 -19 24 -62 6 -86 -12 -16 -15 -16 -44
2 -37 23 -47 52 -27 80 17 25 40 27 65 4z m8 -190 c25 -32 25 -38 0 -63 -54
-54 -127 20 -90 90 9 16 15 17 40 8 17 -5 39 -21 50 -35z"/>
<path d="M14025 924 c-22 -7 -41 -14 -42 -14 -1 0 -10 -14 -19 -31 -18 -37
-12 -74 18 -106 12 -13 16 -23 10 -23 -24 0 -52 -40 -52 -74 0 -91 123 -134
218 -76 39 24 51 74 28 118 -8 16 -22 32 -31 36 -14 5 -13 9 5 34 29 39 24 98
-10 122 -36 26 -79 30 -125 14z m77 -41 c21 -19 24 -62 6 -86 -12 -16 -15 -16
-44 2 -37 23 -47 52 -27 80 17 25 40 27 65 4z m8 -190 c25 -32 25 -38 0 -63
-54 -54 -127 20 -90 90 9 16 15 17 40 8 17 -5 39 -21 50 -35z"/>
<path d="M25635 924 c-22 -7 -41 -14 -42 -14 -1 0 -10 -14 -19 -31 -18 -37
-12 -74 18 -106 12 -13 16 -23 10 -23 -24 0 -52 -40 -52 -74 0 -91 123 -134
218 -76 39 24 51 74 28 118 -8 16 -22 32 -31 36 -14 5 -13 9 5 34 29 39 24 98
-10 122 -36 26 -79 30 -125 14z m77 -41 c21 -19 24 -62 6 -86 -12 -16 -15 -16
-44 2 -37 23 -47 52 -27 80 17 25 40 27 65 4z m11 -195 c15 -21 17 -30 8 -47
-28 -51 -111 -29 -111 30 0 17 5 39 10 50 10 17 14 18 42 6 17 -7 40 -24 51
-39z"/>
<path d="M2660 774 c-39 -110 -60 -158 -72 -162 -10 -2 -18 -11 -18 -18 0 -10
16 -14 60 -14 44 0 60 4 60 14 0 7 -9 16 -20 19 -18 5 -19 8 -6 44 13 37 14
38 68 41 55 3 56 2 67 -29 15 -43 14 -59 -4 -59 -8 0 -15 -7 -15 -15 0 -13 21
-15 130 -15 104 0 130 3 130 14 0 7 -9 16 -20 19 -19 5 -20 13 -19 129 l1 123
34 -100 c62 -182 64 -186 88 -183 17 2 29 25 68 138 l47 135 0 -122 c1 -103
-1 -123 -14 -123 -8 0 -15 -7 -15 -15 0 -12 14 -15 70 -15 53 0 70 3 70 14 0
7 -9 16 -20 19 -19 5 -20 14 -20 142 0 128 1 137 20 142 11 3 20 12 20 19 0
11 -17 14 -67 14 l-68 0 -34 -111 c-19 -60 -38 -112 -42 -115 -4 -2 -25 48
-45 111 l-38 115 -68 0 c-51 0 -68 -3 -68 -14 0 -7 9 -16 20 -19 20 -5 20 -12
18 -144 l-3 -138 -30 0 c-29 0 -30 3 -88 158 -59 157 -60 157 -91 157 l-31 0
-55 -156z m110 -31 c0 -2 -16 -3 -36 -3 -33 0 -36 2 -30 25 3 13 11 37 17 52
l11 28 19 -50 c10 -27 19 -51 19 -52z"/>
<path d="M4168 912 c-60 -19 -64 -42 -8 -42 l41 0 -3 -127 -3 -128 -27 -3
c-16 -2 -28 -9 -28 -18 0 -11 19 -14 95 -14 76 0 95 3 95 14 0 9 -12 16 -27
18 l-28 3 -3 158 -3 157 -27 -1 c-15 0 -48 -8 -74 -17z"/>
<path d="M4445 908 c-38 -30 -55 -76 -55 -153 0 -116 45 -179 126 -177 88 1
134 61 134 175 0 119 -43 177 -130 177 -33 0 -55 -6 -75 -22z m112 -35 c13
-20 18 -48 18 -118 0 -99 -17 -145 -54 -145 -28 0 -41 22 -53 88 -12 64 0 161
23 188 18 22 47 16 66 -13z"/>
<path d="M4740 774 c-39 -110 -60 -158 -72 -162 -10 -2 -18 -11 -18 -18 0 -10
16 -14 60 -14 44 0 60 4 60 14 0 7 -9 16 -20 19 -18 5 -19 8 -6 44 13 37 14
38 68 41 55 3 56 2 67 -29 15 -43 14 -59 -4 -59 -8 0 -15 -7 -15 -15 0 -12 14
-15 70 -15 53 0 70 3 70 14 0 8 -6 16 -13 19 -7 3 -39 75 -71 161 -58 156 -58
156 -90 156 l-31 0 -55 -156z m110 -31 c0 -2 -16 -3 -36 -3 -33 0 -36 2 -30
25 3 13 11 37 17 52 l11 28 19 -50 c10 -27 19 -51 19 -52z"/>
<path d="M5010 916 c0 -7 9 -16 20 -19 19 -5 20 -14 20 -142 0 -128 -1 -137
-20 -142 -11 -3 -20 -12 -20 -19 0 -10 16 -14 60 -14 44 0 60 4 60 14 0 7 -9
16 -20 19 -19 5 -20 13 -19 129 l1 123 34 -100 c62 -182 64 -186 88 -183 17 2
29 25 68 138 l47 135 0 -122 c1 -103 -1 -123 -14 -123 -8 0 -15 -7 -15 -15 0
-12 14 -15 70 -15 53 0 70 3 70 14 0 7 -9 16 -20 19 -19 5 -20 14 -20 142 0
128 1 137 20 142 11 3 20 12 20 19 0 11 -17 14 -67 14 l-68 0 -34 -111 c-19
-60 -38 -112 -42 -115 -4 -2 -25 48 -45 111 l-38 115 -68 0 c-51 0 -68 -3 -68
-14z"/>
<path d="M6118 912 c-60 -19 -64 -42 -8 -42 l41 0 -3 -127 -3 -128 -27 -3
c-16 -2 -28 -9 -28 -18 0 -11 19 -14 95 -14 76 0 95 3 95 14 0 9 -12 16 -27
18 l-28 3 -3 158 -3 157 -27 -1 c-15 0 -48 -8 -74 -17z"/>
<path d="M6382 910 c-28 -17 -33 -25 -30 -53 3 -28 7 -32 36 -35 31 -3 32 -2
32 31 0 19 6 37 13 40 22 8 57 -12 67 -39 18 -45 -5 -87 -86 -163 -46 -43 -74
-77 -74 -90 0 -20 5 -21 125 -21 l125 0 0 50 c0 39 -3 50 -16 50 -9 0 -18 -9
-21 -20 -5 -17 -14 -20 -66 -20 -34 0 -57 4 -51 8 5 4 31 25 58 47 61 48 86
89 86 140 -1 66 -37 95 -117 95 -30 0 -60 -7 -81 -20z"/>
<path d="M6630 916 c0 -7 9 -16 20 -19 19 -5 20 -14 20 -142 0 -128 -1 -137
-20 -142 -11 -3 -20 -12 -20 -19 0 -11 19 -14 80 -14 63 0 80 3 80 14 0 8 -10
16 -22 18 -20 3 -23 9 -23 48 l0 45 50 6 c28 3 58 9 68 14 43 18 62 119 32
162 -21 30 -74 43 -177 43 -68 0 -88 -3 -88 -14z m177 -34 c22 -14 33 -59 22
-91 -11 -30 -59 -59 -78 -46 -6 3 -11 37 -11 76 0 69 0 69 28 69 15 0 32 -4
39 -8z"/>
<path d="M6930 916 c0 -7 9 -16 20 -19 19 -5 20 -14 20 -142 0 -128 -1 -137
-20 -142 -11 -3 -20 -12 -20 -19 0 -10 16 -14 60 -14 44 0 60 4 60 14 0 7 -9
16 -20 19 -19 5 -20 13 -19 129 l1 123 34 -100 c62 -182 64 -186 88 -183 17 2
29 25 68 138 l47 135 0 -122 c1 -103 -1 -123 -14 -123 -8 0 -15 -7 -15 -15 0
-12 14 -15 70 -15 53 0 70 3 70 14 0 7 -9 16 -20 19 -19 5 -20 14 -20 142 0
128 1 137 20 142 11 3 20 12 20 19 0 11 -17 14 -67 14 l-68 0 -34 -111 c-19
-60 -38 -112 -42 -115 -4 -2 -25 48 -45 111 l-38 115 -68 0 c-51 0 -68 -3 -68
-14z"/>
<path d="M8172 910 c-28 -17 -33 -25 -30 -53 3 -28 7 -32 36 -35 31 -3 32 -2
32 31 0 19 6 37 13 40 22 8 57 -12 67 -39 18 -45 -5 -87 -86 -163 -46 -43 -74
-77 -74 -90 0 -20 5 -21 125 -21 l125 0 0 50 c0 39 -3 50 -16 50 -9 0 -18 -9
-21 -20 -5 -17 -14 -20 -66 -20 -34 0 -57 4 -51 8 5 4 31 25 58 47 61 48 86
89 86 140 -1 66 -37 95 -117 95 -30 0 -60 -7 -81 -20z"/>
<path d="M8420 916 c0 -7 9 -16 20 -19 19 -5 20 -14 20 -142 0 -128 -1 -137
-20 -142 -11 -3 -20 -12 -20 -19 0 -11 19 -14 80 -14 63 0 80 3 80 14 0 8 -10
16 -22 18 -20 3 -23 9 -23 48 l0 45 50 6 c28 3 58 9 68 14 43 18 62 119 32
162 -21 30 -74 43 -177 43 -68 0 -88 -3 -88 -14z m177 -34 c22 -14 33 -59 22
-91 -11 -30 -59 -59 -78 -46 -6 3 -11 37 -11 76 0 69 0 69 28 69 15 0 32 -4
39 -8z"/>
<path d="M8720 916 c0 -7 9 -16 20 -19 19 -5 20 -14 20 -142 0 -128 -1 -137
-20 -142 -11 -3 -20 -12 -20 -19 0 -10 16 -14 60 -14 44 0 60 4 60 14 0 7 -9
16 -20 19 -19 5 -20 13 -19 129 l1 123 34 -100 c62 -182 64 -186 88 -183 17 2
29 25 68 138 l47 135 0 -122 c1 -103 -1 -123 -14 -123 -8 0 -15 -7 -15 -15 0
-12 14 -15 70 -15 53 0 70 3 70 14 0 7 -9 16 -20 19 -19 5 -20 14 -20 142 0
128 1 137 20 142 11 3 20 12 20 19 0 11 -17 14 -67 14 l-68 0 -34 -111 c-19
-60 -38 -112 -42 -115 -4 -2 -25 48 -45 111 l-38 115 -68 0 c-51 0 -68 -3 -68
-14z"/>
<path d="M10143 825 c-55 -69 -83 -113 -83 -130 0 -25 1 -25 80 -25 l80 0 0
-55 c0 -54 0 -55 30 -55 30 0 30 1 30 55 0 54 0 55 30 55 25 0 30 4 30 25 0
21 -5 25 -30 25 l-30 0 0 105 0 105 -27 -1 c-23 0 -42 -18 -110 -104z m77 -45
l0 -60 -51 0 -50 0 46 60 c25 33 48 60 51 60 2 0 4 -27 4 -60z"/>
<path d="M10350 916 c0 -7 9 -16 20 -19 19 -5 20 -14 20 -142 0 -128 -1 -137
-20 -142 -11 -3 -20 -12 -20 -19 0 -11 19 -14 80 -14 63 0 80 3 80 14 0 8 -10
16 -22 18 -20 3 -23 9 -23 48 l0 45 50 6 c28 3 58 9 68 14 43 18 62 119 32
162 -21 30 -74 43 -177 43 -68 0 -88 -3 -88 -14z m177 -34 c22 -14 33 -59 22
-91 -11 -30 -59 -59 -78 -46 -6 3 -11 37 -11 76 0 69 0 69 28 69 15 0 32 -4
39 -8z"/>
<path d="M10650 916 c0 -7 9 -16 20 -19 19 -5 20 -14 20 -142 0 -128 -1 -137
-20 -142 -11 -3 -20 -12 -20 -19 0 -10 16 -14 60 -14 44 0 60 4 60 14 0 7 -9
16 -20 19 -19 5 -20 13 -19 129 l1 123 34 -100 c62 -182 64 -186 88 -183 17 2
29 25 68 138 l47 135 0 -122 c1 -103 -1 -123 -14 -123 -8 0 -15 -7 -15 -15 0
-12 14 -15 70 -15 53 0 70 3 70 14 0 7 -9 16 -20 19 -19 5 -20 14 -20 142 0
128 1 137 20 142 11 3 20 12 20 19 0 11 -17 14 -67 14 l-68 0 -34 -111 c-19
-60 -38 -112 -42 -115 -4 -2 -25 48 -45 111 l-38 115 -68 0 c-51 0 -68 -3 -68
-14z"/>
<path d="M12290 916 c0 -7 9 -16 20 -19 19 -5 20 -14 20 -142 0 -128 -1 -137
-20 -142 -11 -3 -20 -12 -20 -19 0 -11 19 -14 80 -14 63 0 80 3 80 14 0 8 -10
16 -22 18 -20 3 -23 9 -23 48 l0 45 50 6 c28 3 58 9 68 14 43 18 62 119 32
162 -21 30 -74 43 -177 43 -68 0 -88 -3 -88 -14z m177 -34 c22 -14 33 -59 22
-91 -11 -30 -59 -59 -78 -46 -6 3 -11 37 -11 76 0 69 0 69 28 69 15 0 32 -4
39 -8z"/>
<path d="M12590 916 c0 -7 9 -16 20 -19 19 -5 20 -14 20 -142 0 -128 -1 -137
-20 -142 -11 -3 -20 -12 -20 -19 0 -10 16 -14 60 -14 44 0 60 4 60 14 0 7 -9
16 -20 19 -19 5 -20 13 -19 129 l1 123 34 -100 c62 -182 64 -186 88 -183 17 2
29 25 68 138 l47 135 0 -122 c1 -103 -1 -123 -14 -123 -8 0 -15 -7 -15 -15 0
-12 14 -15 70 -15 53 0 70 3 70 14 0 7 -9 16 -20 19 -19 5 -20 14 -20 142 0
128 1 137 20 142 11 3 20 12 20 19 0 11 -17 14 -67 14 l-68 0 -34 -111 c-19
-60 -38 -112 -42 -115 -4 -2 -25 48 -45 111 l-38 115 -68 0 c-51 0 -68 -3 -68
-14z"/>
<path d="M14230 916 c0 -7 9 -16 20 -19 19 -5 20 -14 20 -142 0 -128 -1 -137
-20 -142 -11 -3 -20 -12 -20 -19 0 -11 19 -14 80 -14 63 0 80 3 80 14 0 8 -10
16 -22 18 -20 3 -23 9 -23 48 l0 45 50 6 c28 3 58 9 68 14 43 18 62 119 32
162 -21 30 -74 43 -177 43 -68 0 -88 -3 -88 -14z m177 -34 c22 -14 33 -59 22
-91 -11 -30 -59 -59 -78 -46 -6 3 -11 37 -11 76 0 69 0 69 28 69 15 0 32 -4
39 -8z"/>
<path d="M14530 916 c0 -7 9 -16 20 -19 19 -5 20 -14 20 -142 0 -128 -1 -137
-20 -142 -11 -3 -20 -12 -20 -19 0 -10 16 -14 60 -14 44 0 60 4 60 14 0 7 -9
16 -20 19 -19 5 -20 13 -19 129 l1 123 34 -100 c62 -182 64 -186 88 -183 17 2
29 25 68 138 l47 135 0 -122 c1 -103 -1 -123 -14 -123 -8 0 -15 -7 -15 -15 0
-12 14 -15 70 -15 53 0 70 3 70 14 0 7 -9 16 -20 19 -19 5 -20 14 -20 142 0
128 1 137 20 142 11 3 20 12 20 19 0 11 -17 14 -67 14 l-68 0 -34 -111 c-19
-60 -38 -112 -42 -115 -4 -2 -25 48 -45 111 l-38 115 -68 0 c-51 0 -68 -3 -68
-14z"/>
<path d="M15808 912 c-60 -19 -64 -42 -8 -42 l41 0 -3 -127 -3 -128 -27 -3
c-16 -2 -28 -9 -28 -18 0 -11 19 -14 95 -14 76 0 95 3 95 14 0 9 -12 16 -27
18 l-28 3 -3 158 -3 157 -27 -1 c-15 0 -48 -8 -74 -17z"/>
<path d="M16085 908 c-38 -30 -55 -76 -55 -153 0 -116 45 -179 126 -177 88 1
134 61 134 175 0 119 -43 177 -130 177 -33 0 -55 -6 -75 -22z m112 -35 c25
-38 25 -198 0 -236 -19 -29 -48 -35 -66 -13 -23 28 -35 130 -23 191 7 32 17
64 23 71 18 22 47 16 66 -13z"/>
<path d="M16320 916 c0 -7 9 -16 20 -19 19 -5 20 -14 20 -142 0 -128 -1 -137
-20 -142 -11 -3 -20 -12 -20 -19 0 -11 19 -14 80 -14 63 0 80 3 80 14 0 8 -10
16 -22 18 -20 3 -23 9 -23 48 l0 45 50 6 c28 3 58 9 68 14 43 18 62 119 32
162 -21 30 -74 43 -177 43 -68 0 -88 -3 -88 -14z m177 -34 c22 -14 33 -59 22
-91 -11 -30 -59 -59 -78 -46 -6 3 -11 37 -11 76 0 69 0 69 28 69 15 0 32 -4
39 -8z"/>
<path d="M16610 916 c0 -7 9 -16 20 -19 19 -5 20 -14 20 -142 0 -128 -1 -137
-20 -142 -11 -3 -20 -12 -20 -19 0 -10 16 -14 60 -14 44 0 60 4 60 14 0 7 -9
16 -20 19 -19 5 -20 13 -19 129 l1 123 34 -100 c62 -182 64 -186 88 -183 17 2
29 25 68 138 l47 135 0 -122 c1 -103 -1 -123 -14 -123 -8 0 -15 -7 -15 -15 0
-12 14 -15 70 -15 53 0 70 3 70 14 0 7 -9 16 -20 19 -19 5 -20 14 -20 142 0
128 1 137 20 142 11 3 20 12 20 19 0 11 -17 14 -67 14 l-68 0 -34 -111 c-19
-60 -38 -112 -42 -115 -4 -2 -25 48 -45 111 l-38 115 -68 0 c-51 0 -68 -3 -68
-14z"/>
<path d="M17728 912 c-60 -19 -64 -42 -8 -42 l41 0 -3 -127 -3 -128 -27 -3
c-16 -2 -28 -9 -28 -18 0 -11 19 -14 95 -14 76 0 95 3 95 14 0 9 -12 16 -27
18 l-28 3 -3 158 -3 157 -27 -1 c-15 0 -48 -8 -74 -17z"/>
<path d="M17992 910 c-28 -17 -33 -25 -30 -53 3 -28 7 -32 36 -35 31 -3 32 -2
32 31 0 19 6 37 13 40 22 8 57 -12 67 -39 18 -45 -5 -87 -86 -163 -46 -43 -74
-77 -74 -90 0 -20 5 -21 125 -21 l125 0 0 50 c0 39 -3 50 -16 50 -9 0 -18 -9
-21 -20 -5 -17 -14 -20 -66 -20 -34 0 -57 4 -51 8 5 4 31 25 58 47 61 48 86
89 86 140 -1 66 -37 95 -117 95 -30 0 -60 -7 -81 -20z"/>
<path d="M18310 774 c-39 -110 -60 -158 -72 -162 -10 -2 -18 -11 -18 -18 0
-10 16 -14 60 -14 44 0 60 4 60 14 0 7 -9 16 -20 19 -18 5 -19 8 -6 44 13 37
14 38 68 41 55 3 56 2 67 -29 15 -43 14 -59 -4 -59 -8 0 -15 -7 -15 -15 0 -13
21 -15 130 -15 104 0 130 3 130 14 0 7 -9 16 -20 19 -19 5 -20 13 -19 129 l1
123 34 -100 c62 -182 64 -186 88 -183 17 2 29 25 68 138 l47 135 0 -122 c1
-103 -1 -123 -14 -123 -8 0 -15 -7 -15 -15 0 -12 14 -15 70 -15 53 0 70 3 70
14 0 7 -9 16 -20 19 -19 5 -20 14 -20 142 0 128 1 137 20 142 11 3 20 12 20
19 0 11 -17 14 -67 14 l-68 0 -34 -111 c-19 -60 -38 -112 -42 -115 -4 -2 -25
48 -45 111 l-38 115 -68 0 c-51 0 -68 -3 -68 -14 0 -7 9 -16 20 -19 20 -5 20
-12 18 -144 l-3 -138 -30 0 c-29 0 -30 3 -88 158 -59 157 -60 157 -91 157
l-31 0 -55 -156z m110 -31 c0 -2 -16 -3 -36 -3 -33 0 -36 2 -30 25 3 13 11 37
17 52 l11 28 19 -50 c10 -27 19 -51 19 -52z"/>
<path d="M19782 910 c-28 -17 -33 -25 -30 -53 3 -28 7 -32 36 -35 31 -3 32 -2
32 31 0 19 6 37 13 40 22 8 57 -12 67 -39 18 -45 -5 -87 -86 -163 -46 -43 -74
-77 -74 -90 0 -20 5 -21 125 -21 l125 0 0 50 c0 39 -3 50 -16 50 -9 0 -18 -9
-21 -20 -5 -17 -14 -20 -66 -20 -34 0 -57 4 -51 8 5 4 31 25 58 47 61 48 86
89 86 140 -1 66 -37 95 -117 95 -30 0 -60 -7 -81 -20z"/>
<path d="M20100 774 c-39 -110 -60 -158 -72 -162 -10 -2 -18 -11 -18 -18 0
-10 16 -14 60 -14 44 0 60 4 60 14 0 7 -9 16 -20 19 -18 5 -19 8 -6 44 13 37
14 38 68 41 55 3 56 2 67 -29 15 -43 14 -59 -4 -59 -8 0 -15 -7 -15 -15 0 -13
21 -15 130 -15 104 0 130 3 130 14 0 7 -9 16 -20 19 -19 5 -20 13 -19 129 l1
123 34 -100 c62 -182 64 -186 88 -183 17 2 29 25 68 138 l47 135 0 -122 c1
-103 -1 -123 -14 -123 -8 0 -15 -7 -15 -15 0 -12 14 -15 70 -15 53 0 70 3 70
14 0 7 -9 16 -20 19 -19 5 -20 14 -20 142 0 128 1 137 20 142 11 3 20 12 20
19 0 11 -17 14 -67 14 l-68 0 -34 -111 c-19 -60 -38 -112 -42 -115 -4 -2 -25
48 -45 111 l-38 115 -68 0 c-51 0 -68 -3 -68 -14 0 -7 9 -16 20 -19 20 -5 20
-12 18 -144 l-3 -138 -30 0 c-29 0 -30 3 -88 158 -59 157 -60 157 -91 157
l-31 0 -55 -156z m110 -31 c0 -2 -16 -3 -36 -3 -33 0 -36 2 -30 25 3 13 11 37
17 52 l11 28 19 -50 c10 -27 19 -51 19 -52z"/>
<path d="M21753 825 c-55 -69 -83 -113 -83 -130 0 -25 1 -25 80 -25 l80 0 0
-55 c0 -54 0 -55 30 -55 30 0 30 1 30 55 0 54 0 55 30 55 25 0 30 4 30 25 0
21 -5 25 -30 25 l-30 0 0 105 0 105 -27 -1 c-23 0 -42 -18 -110 -104z m77 -45
l0 -60 -51 0 -50 0 46 60 c25 33 48 60 51 60 2 0 4 -27 4 -60z"/>
<path d="M22030 774 c-39 -110 -60 -158 -72 -162 -10 -2 -18 -11 -18 -18 0
-10 16 -14 60 -14 44 0 60 4 60 14 0 7 -9 16 -20 19 -18 5 -19 8 -6 44 13 37
14 38 68 41 55 3 56 2 67 -29 15 -43 14 -59 -4 -59 -8 0 -15 -7 -15 -15 0 -12
14 -15 70 -15 53 0 70 3 70 14 0 8 -6 16 -13 19 -7 3 -39 75 -71 161 -58 156
-58 156 -90 156 l-31 0 -55 -156z m110 -31 c0 -2 -16 -3 -36 -3 -33 0 -36 2
-30 25 3 13 11 37 17 52 l11 28 19 -50 c10 -27 19 -51 19 -52z"/>
<path d="M22300 916 c0 -7 9 -16 20 -19 19 -5 20 -14 20 -142 0 -128 -1 -137
-20 -142 -11 -3 -20 -12 -20 -19 0 -10 16 -14 60 -14 44 0 60 4 60 14 0 7 -9
16 -20 19 -19 5 -20 13 -19 129 l1 123 34 -100 c62 -182 64 -186 88 -183 17 2
29 25 68 138 l47 135 0 -122 c1 -103 -1 -123 -14 -123 -8 0 -15 -7 -15 -15 0
-12 14 -15 70 -15 53 0 70 3 70 14 0 7 -9 16 -20 19 -19 5 -20 14 -20 142 0
128 1 137 20 142 11 3 20 12 20 19 0 11 -17 14 -67 14 l-68 0 -34 -111 c-19
-60 -38 -112 -42 -115 -4 -2 -25 48 -45 111 l-38 115 -68 0 c-51 0 -68 -3 -68
-14z"/>
<path d="M23970 774 c-39 -110 -60 -158 -72 -162 -10 -2 -18 -11 -18 -18 0
-10 16 -14 60 -14 44 0 60 4 60 14 0 7 -9 16 -20 19 -18 5 -19 8 -6 44 13 37
14 38 68 41 55 3 56 2 67 -29 15 -43 14 -59 -4 -59 -8 0 -15 -7 -15 -15 0 -13
21 -15 130 -15 104 0 130 3 130 14 0 7 -9 16 -20 19 -19 5 -20 13 -19 129 l1
123 34 -100 c62 -182 64 -186 88 -183 17 2 29 25 68 138 l47 135 0 -122 c1
-103 -1 -123 -14 -123 -8 0 -15 -7 -15 -15 0 -12 14 -15 70 -15 53 0 70 3 70
14 0 7 -9 16 -20 19 -19 5 -20 14 -20 142 0 128 1 137 20 142 11 3 20 12 20
19 0 11 -17 14 -67 14 l-68 0 -34 -111 c-19 -60 -38 -112 -42 -115 -4 -2 -25
48 -45 111 l-38 115 -68 0 c-51 0 -68 -3 -68 -14 0 -7 9 -16 20 -19 20 -5 20
-12 18 -144 l-3 -138 -30 0 c-29 0 -30 3 -88 158 -59 157 -60 157 -91 157
l-31 0 -55 -156z m110 -31 c0 -2 -16 -3 -36 -3 -33 0 -36 2 -30 25 3 13 11 37
17 52 l11 28 19 -50 c10 -27 19 -51 19 -52z"/>
<path d="M25910 774 c-39 -110 -60 -158 -72 -162 -10 -2 -18 -11 -18 -18 0
-10 16 -14 60 -14 44 0 60 4 60 14 0 7 -9 16 -20 19 -18 5 -19 8 -6 44 13 37
14 38 68 41 55 3 56 2 67 -29 15 -43 14 -59 -4 -59 -8 0 -15 -7 -15 -15 0 -13
21 -15 130 -15 104 0 130 3 130 14 0 7 -9 16 -20 19 -19 5 -20 13 -19 129 l1
123 34 -100 c62 -182 64 -186 88 -183 17 2 29 25 68 138 l47 135 0 -122 c1
-103 -1 -123 -14 -123 -8 0 -15 -7 -15 -15 0 -12 14 -15 70 -15 53 0 70 3 70
14 0 7 -9 16 -20 19 -19 5 -20 14 -20 142 0 128 1 137 20 142 11 3 20 12 20
19 0 11 -17 14 -67 14 l-68 0 -34 -111 c-19 -60 -38 -112 -42 -115 -4 -2 -25
48 -45 111 l-38 115 -68 0 c-51 0 -68 -3 -68 -14 0 -7 9 -16 20 -19 20 -5 20
-12 18 -144 l-3 -138 -30 0 c-29 0 -30 3 -88 158 -59 157 -60 157 -91 157
l-31 0 -55 -156z m110 -31 c0 -2 -16 -3 -36 -3 -33 0 -36 2 -30 25 3 13 11 37
17 52 l11 28 19 -50 c10 -27 19 -51 19 -52z"/>
</g>
</svg>
